<?xml version="1.0" encoding="UTF-8"?>
<svg id="a" data-name="Layer 1" xmlns="http://www.w3.org/2000/svg" viewBox="0 0 19.07 10.04">
  <defs>
    <style>
      .b {
        fill: #1d1d1b;
        stroke-width: 0px;
      }
    </style>
  </defs>
  <path class="b" d="M8.36,4.28C8.36,1.81,6.85,0,4.24,0,1.47,0,0,1.91,0,4.29s1.34,4.28,4.12,4.28c.43,0,.81-.06,1.17-.14l2.36,1.61,1.25-1.45-1.73-1.17c.79-.79,1.19-1.91,1.19-3.14ZM2.5,4.25c0-1.54.49-2.51,1.67-2.51,1.26,0,1.71,1.05,1.71,2.55,0,1.41-.42,2.53-1.67,2.53s-1.7-1.06-1.7-2.57Z"/>
  <path class="b" d="M17.04,1.97c-1.05,0-1.56.44-1.93.87-.21-.4-.66-.87-1.6-.87s-1.43.39-1.77.82c-.01-.22-.05-.53-.07-.67h-2.24c.01.54.01,1.14.01,1.72v4.57h2.31v-3.62c0-.82.22-1.11.73-1.11s.64.39.64.86v3.87h2.3v-3.67c0-.72.2-1.06.72-1.06s.65.38.65.85v3.89h2.29v-4.09c0-1.61-.87-2.35-2.04-2.35Z"/>
</svg>