<?xml version="1.0" encoding="UTF-8"?>
<svg id="a" xmlns="http://www.w3.org/2000/svg" version="1.1" viewBox="0 0 19.1 10">
  <defs>
    <style>
      .cls-1 {
        fill: #1d1dff;
        stroke-width: 0px;
      }
    </style>
  </defs>
  <path class="cls-1" d="M8.4,4.3C8.4,1.8,6.8,0,4.2,0S0,1.9,0,4.3s1.3,4.3,4.1,4.3.8,0,1.2-.1l2.4,1.6,1.2-1.4-1.7-1.2c.8-.8,1.2-1.9,1.2-3.1ZM2.5,4.3c0-1.5.5-2.5,1.7-2.5s1.7,1,1.7,2.5-.4,2.5-1.7,2.5-1.7-1.1-1.7-2.6h0Z"/>
  <path class="cls-1" d="M17,2c-1.1,0-1.6.4-1.9.9-.2-.4-.7-.9-1.6-.9s-1.4.4-1.8.8c0-.2,0-.5,0-.7h-2.2c0,.5,0,1.1,0,1.7v4.6h2.3v-3.6c0-.8.2-1.1.7-1.1s.6.4.6.9v3.9h2.3v-3.7c0-.7.2-1.1.7-1.1s.6.4.6.8v3.9h2.3v-4.1c0-1.6-.9-2.3-2-2.3h0Z"/>
</svg>